<svg xmlns="http://www.w3.org/2000/svg" version="1.1" xmlns:xlink="http://www.w3.org/1999/xlink" xmlns:svgjs="http://svgjs.com/svgjs" width="512" height="512" x="0" y="0" viewBox="0 0 512 512" style="enable-background:new 0 0 512 512" xml:space="preserve" class=""><g><path d="M300.8 112c0 6.2-1.2 12-3.5 17.3-2.4 5.4-5.6 10-9.6 14-4.1 4-8.8 7.2-14.3 9.5-5.5 2.4-11.3 3.5-17.5 3.5s-12-1.2-17.5-3.5c-5.5-2.4-10.2-5.5-14.2-9.5s-7.2-8.7-9.5-14c-2.4-5.4-3.5-11.2-3.5-17.3s1.2-11.8 3.5-17.2 5.5-10.2 9.5-14.2 8.7-7.2 14.2-9.5 11.3-3.5 17.5-3.5 12 1.2 17.5 3.5c5.5 2.4 10.2 5.5 14.3 9.5s7.3 8.7 9.6 14.2c2.3 5.4 3.5 11.1 3.5 17.2zm-11.5 332.5h-67.1V183h67.1z" fill="#308091" data-original="#000000" class=""></path></g></svg>