<svg width="17" height="17" viewBox="0 0 17 17" fill="none" xmlns="http://www.w3.org/2000/svg">
<path d="M8.18921 4.20703C8.89233 4.20703 9.5603 4.41797 10.1931 4.76953C10.8259 5.12109 11.3181 5.61328 11.6697 6.24609C12.0212 6.87891 12.2322 7.54688 12.2322 8.25C12.2322 8.98828 12.0212 9.65625 11.6697 10.2891C11.3181 10.9219 10.8259 11.4141 10.1931 11.7656C9.5603 12.1172 8.89233 12.293 8.18921 12.293C7.45093 12.293 6.78296 12.1172 6.15015 11.7656C5.51733 11.4141 5.02515 10.9219 4.67358 10.2891C4.32202 9.65625 4.14624 8.98828 4.14624 8.25C4.14624 7.54688 4.32202 6.87891 4.67358 6.24609C5.02515 5.61328 5.51733 5.12109 6.15015 4.76953C6.78296 4.41797 7.45093 4.20703 8.18921 4.20703ZM8.18921 10.8867C8.89233 10.8867 9.52515 10.6406 10.0525 10.1133C10.5447 9.62109 10.8259 8.98828 10.8259 8.25C10.8259 7.54688 10.5447 6.91406 10.0525 6.38672C9.52515 5.89453 8.89233 5.61328 8.18921 5.61328C7.45093 5.61328 6.81812 5.89453 6.32593 6.38672C5.79858 6.91406 5.55249 7.54688 5.55249 8.25C5.55249 8.98828 5.79858 9.62109 6.32593 10.1133C6.81812 10.6406 7.45093 10.8867 8.18921 10.8867ZM13.3572 4.03125C13.3572 3.78516 13.2517 3.57422 13.0759 3.36328C12.865 3.1875 12.6541 3.08203 12.408 3.08203C12.1267 3.08203 11.9158 3.1875 11.74 3.36328C11.5291 3.57422 11.4587 3.78516 11.4587 4.03125C11.4587 4.3125 11.5291 4.52344 11.74 4.69922C11.9158 4.91016 12.1267 4.98047 12.408 4.98047C12.6541 4.98047 12.865 4.91016 13.0408 4.69922C13.2166 4.52344 13.322 4.3125 13.3572 4.03125ZM16.0291 4.98047C16.0291 5.64844 16.0642 6.73828 16.0642 8.25C16.0642 9.79688 16.0291 10.8867 15.9939 11.5547C15.9587 12.2227 15.8533 12.7852 15.7126 13.2773C15.5017 13.875 15.1501 14.4023 14.7283 14.8242C14.3064 15.2461 13.7791 15.5625 13.2166 15.7734C12.7244 15.9492 12.1267 16.0547 11.4587 16.0898C10.7908 16.125 9.70093 16.125 8.18921 16.125C6.64233 16.125 5.55249 16.125 4.88452 16.0898C4.21655 16.0547 3.65405 15.9492 3.16187 15.7383C2.56421 15.5625 2.03687 15.2461 1.61499 14.8242C1.19312 14.4023 0.876709 13.875 0.665771 13.2773C0.48999 12.7852 0.384521 12.2227 0.349365 11.5547C0.314209 10.8867 0.314209 9.79688 0.314209 8.25C0.314209 6.73828 0.314209 5.64844 0.349365 4.98047C0.384521 4.3125 0.48999 3.71484 0.665771 3.22266C0.876709 2.66016 1.19312 2.13281 1.61499 1.71094C2.03687 1.28906 2.56421 0.9375 3.16187 0.726562C3.65405 0.585938 4.21655 0.480469 4.88452 0.445312C5.55249 0.410156 6.64233 0.375 8.18921 0.375C9.70093 0.375 10.7908 0.410156 11.4587 0.445312C12.1267 0.480469 12.7244 0.585938 13.2166 0.726562C13.7791 0.9375 14.3064 1.28906 14.7283 1.71094C15.1501 2.13281 15.5017 2.66016 15.7126 3.22266C15.8533 3.71484 15.9587 4.3125 16.0291 4.98047ZM14.3416 12.8906C14.4822 12.5039 14.5525 11.8711 14.6228 10.9922C14.6228 10.5 14.658 9.76172 14.658 8.8125V7.6875C14.658 6.73828 14.6228 6 14.6228 5.50781C14.5525 4.62891 14.4822 3.99609 14.3416 3.60938C14.0603 2.90625 13.533 2.37891 12.8298 2.09766C12.4431 1.95703 11.8103 1.88672 10.9314 1.81641C10.4041 1.81641 9.66577 1.78125 8.75171 1.78125H7.62671C6.67749 1.78125 5.93921 1.81641 5.44702 1.81641C4.56812 1.88672 3.9353 1.95703 3.54858 2.09766C2.8103 2.37891 2.31812 2.90625 2.03687 3.60938C1.89624 3.99609 1.79077 4.62891 1.75562 5.50781C1.72046 6.03516 1.72046 6.77344 1.72046 7.6875V8.8125C1.72046 9.76172 1.72046 10.5 1.75562 10.9922C1.79077 11.8711 1.89624 12.5039 2.03687 12.8906C2.31812 13.6289 2.84546 14.1211 3.54858 14.4023C3.9353 14.543 4.56812 14.6484 5.44702 14.6836C5.93921 14.7188 6.67749 14.7188 7.62671 14.7188H8.75171C9.70093 14.7188 10.4392 14.7188 10.9314 14.6836C11.8103 14.6484 12.4431 14.543 12.8298 14.4023C13.533 14.1211 14.0603 13.5938 14.3416 12.8906Z" fill="#44AAC0"/>
</svg>
