<svg width="180" height="56" viewBox="0 0 180 56" fill="none" xmlns="http://www.w3.org/2000/svg">
<g clip-path="url(#clip0_62_8239)">
<path d="M80.6213 16.1258C87.5429 16.1258 92.7581 21.2755 92.7581 28.0006C92.7581 34.7256 87.5423 39.8748 80.6213 39.8748C73.7002 39.8748 68.4844 34.725 68.4844 28.0006C68.4844 21.2761 73.7327 16.1258 80.6213 16.1258ZM80.6213 34.1012C83.9667 34.1012 86.5259 31.4446 86.5259 27.967C86.5259 24.4894 83.9673 21.8658 80.6213 21.8658C77.2753 21.8658 74.7497 24.5224 74.7497 27.967C74.7497 31.4115 77.2758 34.1012 80.6213 34.1012Z" fill="#0C2340"/>
<path d="M95.4492 16.5194H101.452V33.9702H112.08V39.4811H95.4492V16.5194Z" fill="#0C2340"/>
<path d="M111.063 16.5194H130.122V22.0304H123.594V39.4811H117.59V22.0299H111.062V16.5189L111.063 16.5194Z" fill="#0C2340"/>
<path d="M143.603 16.1258C148.654 16.1258 152.853 18.8485 154.723 22.8827L148.884 25.0152C147.933 23.1454 145.997 21.8663 143.603 21.8663C140.257 21.8663 137.732 24.523 137.732 27.9675C137.732 31.4121 140.257 34.1018 143.603 34.1018C145.998 34.1018 147.933 32.8552 148.884 30.9529L154.723 33.1178C152.853 37.1526 148.687 39.8754 143.603 39.8754C136.715 39.8754 131.467 34.7256 131.467 28.0011C131.467 21.2766 136.715 16.1263 143.603 16.1263V16.1258Z" fill="#0C2340"/>
<path d="M155.051 39.4806L164.596 16.5189H169.549L179.062 39.4806H172.797L171.452 36.069H162.694L161.316 39.4806H155.051ZM169.353 30.7882L167.09 25.0802L164.793 30.7882H169.353Z" fill="#0C2340"/>
<path d="M39.7586 4.83C41.2863 4.83 42.7838 4.95824 44.2454 5.19288C39.664 1.9236 34.0567 0 27.9998 0C18.4624 0 10.0389 4.7684 4.98265 12.0518C4.78609 13.3896 4.67969 14.7566 4.67969 16.1493C4.67969 16.9417 4.71273 17.7262 4.77713 18.5024C9.26441 14.6401 14.982 12.1688 21.2635 11.7606C26.21 7.4452 32.6786 4.83112 39.7581 4.83112L39.7586 4.83Z" fill="url(#paint0_linear_62_8239)"/>
<path d="M51.1646 37.492C51.229 38.2676 51.2626 39.0522 51.2626 39.8446C51.2626 41.2754 51.15 42.6793 50.9434 44.0524C53.283 40.7148 54.9138 36.8441 55.6149 32.6581C54.3235 34.4378 52.8283 36.0601 51.1651 37.492H51.1646Z" fill="#B7E0D5"/>
<path d="M55.6869 23.8067C55.0076 19.4471 53.2979 15.2522 50.7376 11.6586C49.0357 9.26968 46.9587 7.14672 44.558 5.41912C44.4706 5.35528 44.3827 5.29144 44.2948 5.22816C44.278 5.2164 44.2612 5.20464 44.245 5.19232C42.7834 4.95768 41.2865 4.82944 39.7582 4.82944C32.6787 4.82944 26.2096 7.44352 21.2637 11.7589C21.8758 11.7191 22.4929 11.6984 23.1156 11.6984C33.9846 11.6984 41.0317 17.831 43.0096 19.9606C47.582 24.533 50.5965 30.6622 51.1638 37.4914C52.8275 36.0595 54.3222 34.4372 55.6135 32.6575C55.6253 32.5881 55.6359 32.5186 55.6471 32.4492C56.1349 29.5798 56.131 26.6577 55.6869 23.8056V23.8067ZM45.2367 5.93376C45.4467 6.09784 45.6545 6.26528 45.8594 6.43496C45.6545 6.26472 45.4467 6.09784 45.2367 5.93376ZM46.5068 6.9888C46.8025 7.2492 47.092 7.51576 47.3765 7.78848C47.092 7.51576 46.8025 7.2492 46.5068 6.9888ZM47.9841 8.3888C48.1694 8.57752 48.3526 8.76904 48.5323 8.96336C48.352 8.76904 48.1694 8.57752 47.9841 8.3888Z" fill="url(#paint1_linear_62_8239)"/>
<path d="M11.6659 34.7071C7.80192 30.305 5.29032 24.687 4.77792 18.5018C3.1472 19.9052 1.67888 21.4922 0.40544 23.2305C0.13944 24.7806 0 26.3743 0 28C0 41.7407 9.898 53.1692 22.9527 55.5458C16.5054 50.7377 12.1839 43.2376 11.6659 34.7071Z" fill="#B7E0D5"/>
<path d="M11.6127 32.9762C11.6127 24.5112 15.3496 16.9193 21.2637 11.76C14.9817 12.1682 9.26462 14.6395 4.77734 18.5018C5.28918 24.6876 7.80134 30.305 11.6653 34.7071C11.6306 34.1348 11.6127 33.5574 11.6127 32.9762Z" fill="#3CB4BC"/>
<path d="M51.1645 37.492C46.2399 41.7306 39.834 44.2943 32.8267 44.2943C24.3926 44.2943 16.8247 40.5838 11.666 34.7071C12.184 43.2376 16.5061 50.7371 22.9528 55.5458C23.0475 55.5632 23.1427 55.58 23.2373 55.5962C23.2496 55.5985 23.2614 55.6002 23.2737 55.6024C23.3633 55.6175 23.4529 55.6321 23.5425 55.6466C23.5599 55.6494 23.5772 55.6522 23.5946 55.655C23.6819 55.669 23.7693 55.6825 23.8572 55.6954C23.8763 55.6982 23.8953 55.701 23.9138 55.7038C24.0011 55.7166 24.0891 55.729 24.1764 55.7413C24.1932 55.7435 24.21 55.7458 24.2268 55.748C24.3175 55.7603 24.4083 55.7721 24.4995 55.7833C24.5051 55.7838 24.5107 55.7844 24.5169 55.7855C24.8109 55.8219 25.1066 55.8538 25.4028 55.8813C25.4179 55.883 25.4336 55.8841 25.4487 55.8858C25.5204 55.8925 25.5921 55.8981 25.6632 55.9042C25.7047 55.9076 25.7461 55.911 25.7875 55.9143C25.8508 55.9194 25.9147 55.9238 25.9785 55.9283C26.0283 55.9317 26.0787 55.9356 26.1286 55.939C26.1879 55.9429 26.2467 55.9462 26.3061 55.9502C26.3615 55.9535 26.4164 55.9569 26.4719 55.9597C26.5279 55.9625 26.5839 55.9653 26.6393 55.9681C26.6992 55.9709 26.7586 55.9737 26.8185 55.9759C26.8711 55.9782 26.9232 55.9804 26.9759 55.9821C27.0408 55.9843 27.1063 55.9866 27.1713 55.9882C27.2195 55.9894 27.2671 55.991 27.3152 55.9922C27.3897 55.9938 27.4642 55.995 27.5387 55.9966C27.5779 55.9972 27.6171 55.9983 27.6563 55.9989C27.7705 56 27.8847 56.0011 27.9995 56.0011C28.1356 56.0011 28.2717 56 28.4078 55.9978C28.4509 55.9972 28.4935 55.9961 28.5366 55.9955C28.6307 55.9938 28.7242 55.9916 28.8183 55.9888C28.867 55.9877 28.9157 55.986 28.9644 55.9843C29.0557 55.981 29.1464 55.9776 29.2371 55.9737C29.2831 55.9714 29.329 55.9698 29.3749 55.9675C29.4819 55.9625 29.5883 55.9563 29.6947 55.9502C29.7227 55.9485 29.7512 55.9474 29.7792 55.9451C29.9136 55.9367 30.0475 55.9272 30.1813 55.9171C30.2155 55.9143 30.2496 55.9115 30.2843 55.9087C30.3846 55.9009 30.4843 55.8919 30.5839 55.883C30.6299 55.8785 30.6758 55.874 30.7217 55.8701C30.8119 55.8611 30.9015 55.8522 30.9911 55.8426C31.0375 55.8376 31.0835 55.8326 31.1299 55.8275C31.2263 55.8169 31.3226 55.8057 31.4183 55.7939C31.4553 55.7894 31.4923 55.785 31.5287 55.7805C31.6614 55.7637 31.7935 55.7463 31.9257 55.7278C31.9408 55.7256 31.9559 55.7234 31.9711 55.7211C32.0875 55.7043 32.204 55.6875 32.3199 55.6696C32.3608 55.6634 32.4023 55.6567 32.4431 55.65C32.5344 55.6354 32.6257 55.6203 32.717 55.6052C32.7618 55.5974 32.806 55.5901 32.8508 55.5822C32.9427 55.566 33.0339 55.5498 33.1258 55.533C33.1655 55.5257 33.2053 55.5184 33.2445 55.5111C33.3643 55.4882 33.4836 55.4652 33.6029 55.4406C33.6124 55.4389 33.6219 55.4366 33.6315 55.435C33.7619 55.4081 33.8924 55.3806 34.0223 55.3521C34.0548 55.3448 34.0867 55.3375 34.1192 55.3302C34.2161 55.3084 34.313 55.2866 34.4093 55.2642C34.4502 55.2546 34.4911 55.2451 34.5314 55.235C34.6221 55.2132 34.7128 55.1914 34.8035 55.1684C34.8427 55.1589 34.8814 55.1488 34.9206 55.1393C35.0236 55.113 35.1267 55.0861 35.2297 55.0586C35.2538 55.0525 35.2773 55.0463 35.3014 55.0396C35.4307 55.0049 35.5595 54.969 35.6878 54.9326C35.7035 54.9282 35.7191 54.9237 35.7348 54.9192C35.8451 54.8873 35.9555 54.8554 36.0652 54.8223C36.0999 54.8117 36.1347 54.801 36.1694 54.7904C36.2623 54.7624 36.3547 54.7333 36.4471 54.7042C36.4835 54.6924 36.5199 54.6812 36.5563 54.6694C36.6532 54.6381 36.7501 54.6067 36.847 54.5742C36.875 54.5653 36.9024 54.5558 36.9304 54.5468C37.1819 54.4622 37.4316 54.3743 37.6803 54.2825C37.706 54.273 37.7312 54.2634 37.757 54.2539C37.855 54.2175 37.9524 54.1806 38.0499 54.143C38.0823 54.1307 38.1143 54.1184 38.1462 54.1055C38.2414 54.0686 38.336 54.031 38.4307 53.993C38.4587 53.9818 38.4861 53.9706 38.5141 53.9594C38.6328 53.9112 38.7515 53.8625 38.8697 53.8126L38.8731 53.8115C38.9991 53.7583 39.1251 53.704 39.2499 53.6491C39.2606 53.6446 39.2712 53.6396 39.2824 53.6346C39.3911 53.5864 39.4997 53.5382 39.6072 53.489C39.633 53.4772 39.6587 53.4654 39.6845 53.4531C39.7803 53.4089 39.876 53.3641 39.9718 53.3193C39.997 53.3075 40.0227 53.2952 40.0479 53.2834C40.1543 53.2325 40.2607 53.181 40.3666 53.1289C40.3772 53.1238 40.3884 53.1182 40.3991 53.1132C40.6399 52.9939 40.879 52.8713 41.1159 52.7458C41.1327 52.7369 41.1495 52.7279 41.1668 52.7184C41.2665 52.6652 41.3662 52.6114 41.4653 52.5566C41.4866 52.5448 41.5084 52.533 41.5297 52.5213C41.6311 52.4653 41.7319 52.4087 41.8321 52.3516C41.8455 52.3438 41.8595 52.3365 41.873 52.3286C42.1082 52.1942 42.3411 52.0565 42.5724 51.9154C42.5758 51.9131 42.5797 51.9109 42.5831 51.9086C42.6911 51.8426 42.7987 51.7754 42.9062 51.7082C42.9224 51.6981 42.9381 51.688 42.9538 51.6779C43.0529 51.6152 43.152 51.5514 43.2506 51.4875C43.264 51.4791 43.2769 51.4702 43.2903 51.4618C43.6286 51.2406 43.9618 51.0126 44.2899 50.7774C44.2983 50.7713 44.3073 50.7651 44.3157 50.759C44.4159 50.6867 44.5156 50.6145 44.6153 50.5411C44.6265 50.5327 44.6377 50.5249 44.6483 50.5165C44.8264 50.3849 45.0023 50.2505 45.1764 50.1144C45.4279 49.919 45.6759 49.7196 45.9207 49.5158C45.9285 49.5096 45.9358 49.5029 45.9436 49.4967C46.0439 49.4127 46.1435 49.3282 46.2427 49.243L46.2483 49.2386C46.5596 48.9709 46.8643 48.6965 47.1633 48.4159L47.1706 48.4086C47.2675 48.3174 47.3643 48.2255 47.4601 48.1326L47.4679 48.1253C47.6645 47.9349 47.8583 47.7422 48.0492 47.5462C48.2402 47.3502 48.4283 47.152 48.6131 46.9504L48.6187 46.9448C48.7274 46.8266 48.8343 46.7079 48.9407 46.5881C48.9771 46.5472 49.013 46.5058 49.0488 46.4643C49.1183 46.3848 49.1883 46.3058 49.2566 46.2258C49.2991 46.1759 49.3411 46.1261 49.3831 46.0762C49.4442 46.004 49.5058 45.9312 49.5663 45.8584C49.6111 45.8046 49.6547 45.7503 49.699 45.696C49.7561 45.626 49.8132 45.556 49.8703 45.4849C49.9157 45.4283 49.9599 45.3718 50.0047 45.3152C50.0596 45.2458 50.1139 45.1763 50.1683 45.1063C50.2131 45.0481 50.2579 44.9898 50.3021 44.9316C50.3547 44.8622 50.4074 44.7927 50.4595 44.7227C50.5037 44.6634 50.5479 44.6034 50.5916 44.5435C50.6426 44.4735 50.6935 44.4035 50.7445 44.3335C50.7882 44.273 50.8319 44.212 50.875 44.151C50.8979 44.1185 50.9209 44.0854 50.9439 44.0524C51.1511 42.6793 51.2631 41.2754 51.2631 39.8446C51.2631 39.0522 51.2295 38.2676 51.1651 37.492H51.1645Z" fill="#3CB4BC"/>
<path d="M11.6133 32.9762C11.6133 33.5574 11.6312 34.1348 11.6659 34.7071C16.8246 40.5843 24.3919 44.2943 32.8266 44.2943C39.8345 44.2943 46.2398 41.7301 51.1644 37.492C50.5971 30.6628 47.5826 24.5336 43.0102 19.9612C41.0323 17.8315 33.9853 11.699 23.1162 11.699C22.4941 11.699 21.8764 11.7197 21.2643 11.7594C15.3502 16.9193 11.6133 24.5106 11.6133 32.9756V32.9762Z" fill="url(#paint2_linear_62_8239)"/>
</g>
<defs>
<linearGradient id="paint0_linear_62_8239" x1="4.68025" y1="9.25064" x2="55.9998" y2="9.25064" gradientUnits="userSpaceOnUse">
<stop stop-color="#7EC8E3"/>
<stop offset="0.75" stop-color="#A5D7D7"/>
</linearGradient>
<linearGradient id="paint1_linear_62_8239" x1="11.6076" y1="21.1613" x2="56.0167" y2="21.1613" gradientUnits="userSpaceOnUse">
<stop offset="0.25" stop-color="#36ADC3"/>
<stop offset="1" stop-color="#80C7B3"/>
</linearGradient>
<linearGradient id="paint2_linear_62_8239" x1="11.6133" y1="27.9966" x2="51.1638" y2="27.9966" gradientUnits="userSpaceOnUse">
<stop offset="0.18" stop-color="#139EAC"/>
<stop offset="0.64" stop-color="#0AA2B0"/>
<stop offset="1" stop-color="#00A7B5"/>
</linearGradient>
<clipPath id="clip0_62_8239">
<rect width="179.062" height="56" fill="white"/>
</clipPath>
</defs>
</svg>
