<svg xmlns="http://www.w3.org/2000/svg" version="1.1" xmlns:xlink="http://www.w3.org/1999/xlink" xmlns:svgjs="http://svgjs.com/svgjs" width="512" height="512" x="0" y="0" viewBox="0 0 48 48" style="enable-background:new 0 0 512 512" xml:space="preserve" class=""><g><path fill="#ff9900" fill-rule="nonzero" d="M21.854 27.712V6.891c0-1.09-.893-1.983-1.983-1.983H4.998c-1.09 0-1.983.892-1.983 1.983v14.872c0 1.091.892 1.983 1.983 1.983h8.626c.198 1.686.595 6.148-1.685 10.907-2.182 4.56-5.454 6.94-6.941 7.932.892.198 6.147 1.289 10.907-1.983 6.444-4.462 5.949-12.592 5.949-12.89zM44.658 27.712V6.891c0-1.09-.892-1.983-1.983-1.983H27.803c-1.091 0-1.983.892-1.983 1.983v14.872c0 1.091.892 1.983 1.983 1.983h8.626c.198 1.686.594 6.148-1.686 10.907-2.181 4.56-5.453 6.94-6.94 7.932.892.198 6.147 1.289 10.906-1.983 6.445-4.462 5.949-12.592 5.949-12.89z" data-original="#2196f3" class=""></path><path d="M5.383 3.584a1 1 0 0 1 0 2h-.841c-.55 0-1 .45-1 1.001v15.008c0 .55.45 1 1 1h8.704a1 1 0 0 1 .994.883c.21 1.786.624 6.513-1.792 11.555a20.604 20.604 0 0 1-5.336 6.898c2.041.088 5.049-.212 7.868-2.151a1 1 0 0 1 1.135 1.648c-5.146 3.538-10.826 2.369-11.79 2.153a.999.999 0 0 1-.338-1.808c1.425-.95 4.565-3.231 6.656-7.604 1.863-3.887 1.858-7.569 1.698-9.573H4.542a3.01 3.01 0 0 1-3.002-3.001V6.585a3.01 3.01 0 0 1 3.002-3.001zm15.092 32.974a1 1 0 1 1-1.756-.958c2.082-3.812 1.831-7.802 1.831-8.004V6.585c0-.55-.45-1-1-1H8.41a1 1 0 0 1 0-2.001h11.14a3.01 3.01 0 0 1 3.001 3.001v21.01c0 .227.257 4.692-2.076 8.963z" fill="#000000" data-original="#000000" class=""></path><circle cx="10.931" cy="27.931" r=".931" transform="translate(6.57 8.685) scale(1.074)" fill="#000000" data-original="#000000" class=""></circle><path d="M45.562 7.613a1 1 0 0 1-2 0V6.585c0-.55-.45-1-1.001-1H27.553c-.55 0-1 .45-1 1v15.007c0 .55.45 1.001 1 1.001h8.705a1 1 0 0 1 .993.883c.21 1.786.625 6.513-1.792 11.555a20.604 20.604 0 0 1-5.335 6.898c2.04.088 5.047-.212 7.867-2.15 6.08-4.212 5.57-11.902 5.57-12.184V10.64a1 1 0 0 1 2.001 0v16.955c0 .32.49 9.036-6.434 13.83l-.002.001c-5.145 3.538-10.825 2.369-11.79 2.153a.999.999 0 0 1-.338-1.808c1.426-.95 4.566-3.231 6.657-7.604 1.862-3.887 1.857-7.569 1.697-9.573h-7.799a3.01 3.01 0 0 1-3.001-3.002V6.585a3.01 3.01 0 0 1 3.001-3.002h15.008a3.01 3.01 0 0 1 3.001 3.002z" fill="#000000" data-original="#000000" class=""></path></g></svg>